<svg width="26" height="20" viewBox="0 0 26 20" fill="none" xmlns="http://www.w3.org/2000/svg">
<path d="M25.6438 11.275C25.5748 11.3268 25.4964 11.3644 25.4129 11.3858C25.3294 11.4072 25.2425 11.4119 25.1572 11.3997C25.0719 11.3875 24.9898 11.3586 24.9156 11.3147C24.8415 11.2708 24.7767 11.2127 24.725 11.1438C24.1774 10.4076 23.4645 9.81028 22.6438 9.39994C21.8231 8.9896 20.9175 8.77769 20 8.78129C19.826 8.78129 19.659 8.71215 19.536 8.58908C19.4129 8.46601 19.3438 8.29909 19.3438 8.12504C19.3438 7.95099 19.4129 7.78408 19.536 7.66101C19.659 7.53793 19.826 7.46879 20 7.46879C20.5319 7.46868 21.053 7.31942 21.5043 7.03797C21.9556 6.75651 22.3189 6.35415 22.5529 5.87657C22.787 5.399 22.8824 4.86535 22.8284 4.33625C22.7744 3.80715 22.5731 3.3038 22.2474 2.88337C21.9216 2.46294 21.4845 2.14228 20.9857 1.95782C20.4869 1.77335 19.9463 1.73247 19.4254 1.83983C18.9045 1.94718 18.4241 2.19846 18.0389 2.56512C17.6536 2.93179 17.3789 3.39914 17.2459 3.91411C17.2024 4.08264 17.0937 4.22699 16.9438 4.3154C16.7939 4.4038 16.6149 4.42902 16.4464 4.38551C16.2779 4.342 16.1335 4.23332 16.0451 4.08338C15.9567 3.93344 15.9315 3.75452 15.975 3.58598C16.14 2.94442 16.4559 2.35158 16.8964 1.85688C17.337 1.36218 17.8894 0.979937 18.5076 0.742025C19.1258 0.504114 19.792 0.41742 20.4505 0.48917C21.109 0.56092 21.7409 0.789035 22.2934 1.1545C22.8458 1.51997 23.303 2.0122 23.6267 2.59017C23.9503 3.16814 24.1312 3.8151 24.1541 4.47713C24.177 5.13916 24.0414 5.79708 23.7584 6.39606C23.4755 6.99503 23.0535 7.5177 22.5277 7.92051C23.8217 8.40342 24.9492 9.2491 25.775 10.3563C25.8267 10.4252 25.8643 10.5037 25.8857 10.5872C25.9071 10.6707 25.9118 10.7575 25.8997 10.8429C25.8875 10.9282 25.8586 11.0102 25.8147 11.0844C25.7708 11.1586 25.7127 11.2233 25.6438 11.275ZM19.6927 18.2969C19.7358 18.3715 19.7639 18.4539 19.7752 18.5394C19.7866 18.6248 19.781 18.7117 19.7587 18.795C19.7365 18.8783 19.698 18.9564 19.6456 19.0248C19.5932 19.0932 19.5278 19.1506 19.4531 19.1938C19.3536 19.2521 19.2403 19.2827 19.125 19.2824C19.0097 19.2825 18.8965 19.2522 18.7966 19.1946C18.6968 19.137 18.6139 19.0541 18.5562 18.9543C17.9858 17.9878 17.1732 17.1868 16.1986 16.6303C15.224 16.0739 14.1212 15.7812 12.9989 15.7812C11.8766 15.7812 10.7738 16.0739 9.7992 16.6303C8.82461 17.1868 8.01199 17.9878 7.44156 18.9543C7.40054 19.0327 7.34407 19.102 7.27556 19.158C7.20705 19.2141 7.12792 19.2557 7.04291 19.2803C6.95791 19.305 6.8688 19.3122 6.78094 19.3015C6.69308 19.2909 6.60828 19.2625 6.53165 19.2182C6.45503 19.1739 6.38815 19.1146 6.33505 19.0438C6.28195 18.973 6.24372 18.8922 6.22266 18.8062C6.20161 18.7202 6.19816 18.6309 6.21252 18.5436C6.22689 18.4562 6.25877 18.3727 6.30625 18.298C7.2001 16.7622 8.59964 15.5846 10.2656 14.9664C9.35557 14.3756 8.66093 13.5063 8.28531 12.4884C7.90969 11.4704 7.87322 10.3583 8.18134 9.31791C8.48947 8.27753 9.12567 7.36464 9.99506 6.71541C10.8644 6.06617 11.9204 5.7154 13.0055 5.7154C14.0905 5.7154 15.1465 6.06617 16.0159 6.71541C16.8853 7.36464 17.5215 8.27753 17.8296 9.31791C18.1377 10.3583 18.1012 11.4704 17.7256 12.4884C17.35 13.5063 16.6554 14.3756 15.7453 14.9664C17.4067 15.5867 18.8016 16.7637 19.6927 18.2969ZM13 14.4688C13.7355 14.4688 14.4545 14.2507 15.066 13.8421C15.6776 13.4335 16.1542 12.8527 16.4357 12.1731C16.7171 11.4936 16.7908 10.7459 16.6473 10.0246C16.5038 9.30318 16.1496 8.64057 15.6296 8.12049C15.1095 7.60041 14.4469 7.24624 13.7255 7.10275C13.0041 6.95926 12.2564 7.0329 11.5769 7.31437C10.8974 7.59583 10.3166 8.07247 9.90797 8.68402C9.49935 9.29556 9.28125 10.0145 9.28125 10.75C9.28125 11.7363 9.67305 12.6822 10.3704 13.3796C11.0678 14.077 12.0137 14.4688 13 14.4688ZM6.65625 8.12504C6.65625 7.95099 6.58711 7.78408 6.46404 7.66101C6.34097 7.53793 6.17405 7.46879 6 7.46879C5.46821 7.46863 4.94712 7.31935 4.49591 7.03791C4.04469 6.75647 3.68143 6.35415 3.44738 5.87663C3.21333 5.39912 3.11786 4.86554 3.17182 4.3365C3.22578 3.80745 3.42701 3.30413 3.75264 2.8837C4.07828 2.46327 4.51528 2.14257 5.01402 1.95802C5.51276 1.77348 6.05326 1.73247 6.57414 1.83967C7.09501 1.94687 7.57539 2.19797 7.96073 2.56447C8.34606 2.93096 8.62091 3.39816 8.75406 3.91301C8.77561 3.99646 8.81338 4.07485 8.86522 4.14371C8.91706 4.21256 8.98195 4.27053 9.0562 4.3143C9.13044 4.35808 9.21258 4.3868 9.29792 4.39883C9.38327 4.41086 9.47014 4.40596 9.55359 4.38442C9.63704 4.36287 9.71544 4.3251 9.78429 4.27326C9.85314 4.22142 9.91111 4.15653 9.95489 4.08228C9.99866 4.00804 10.0274 3.9259 10.0394 3.84056C10.0514 3.75522 10.0465 3.66834 10.025 3.58489C9.86004 2.94333 9.54413 2.35049 9.10358 1.85579C8.66304 1.36108 8.11063 0.978844 7.4924 0.740932C6.87417 0.50302 6.20803 0.416326 5.5495 0.488076C4.89097 0.559826 4.25913 0.787941 3.70664 1.15341C3.15415 1.51888 2.69702 2.01111 2.37335 2.58908C2.04968 3.16704 1.86884 3.81401 1.84592 4.47604C1.82299 5.13807 1.95864 5.79599 2.24156 6.39496C2.52447 6.99394 2.94646 7.51661 3.47234 7.91942C2.17813 8.40262 1.05066 9.2487 0.225 10.3563C0.173292 10.4252 0.13567 10.5037 0.114282 10.5872C0.0928934 10.6707 0.088158 10.7575 0.100346 10.8429C0.112533 10.9282 0.141406 11.0102 0.185314 11.0844C0.229222 11.1586 0.287306 11.2233 0.35625 11.275C0.425194 11.3268 0.503648 11.3644 0.587131 11.3858C0.670615 11.4072 0.757494 11.4119 0.842808 11.3997C0.928122 11.3875 1.0102 11.3586 1.08436 11.3147C1.15851 11.2708 1.22329 11.2127 1.275 11.1438C1.82265 10.4076 2.53551 9.81028 3.3562 9.39994C4.17688 8.9896 5.08245 8.77769 6 8.78129C6.17405 8.78129 6.34097 8.71215 6.46404 8.58908C6.58711 8.46601 6.65625 8.29909 6.65625 8.12504Z" fill="#7199F2"/>
</svg>
