<svg width="16" height="26" viewBox="0 0 16 26" fill="none" xmlns="http://www.w3.org/2000/svg">
<path d="M15.6563 21.3672V24.375C15.6563 24.549 15.5872 24.716 15.4641 24.839C15.341 24.9621 15.1741 25.0312 15.0001 25.0312C14.826 25.0312 14.6591 24.9621 14.536 24.839C14.413 24.716 14.3438 24.549 14.3438 24.375V21.3672C14.3477 20.0263 13.9761 18.711 13.2709 17.5705C12.5657 16.43 11.5552 15.5098 10.3538 14.9141L5.06006 12.2672C3.63888 11.5628 2.44364 10.474 1.60999 9.12457C0.776348 7.77511 0.337692 6.21899 0.343813 4.63281V1.625C0.343813 1.45095 0.412954 1.28403 0.536024 1.16096C0.659095 1.03789 0.826015 0.96875 1.00006 0.96875C1.17411 0.96875 1.34103 1.03789 1.4641 1.16096C1.58717 1.28403 1.65631 1.45095 1.65631 1.625V4.63281C1.65238 5.97374 2.02406 7.28896 2.72926 8.42949C3.43445 9.57001 4.44496 10.4902 5.64631 11.0859L10.9401 13.7328C12.3612 14.4372 13.5565 15.526 14.3901 16.8754C15.2238 18.2249 15.6624 19.781 15.6563 21.3672ZM11.5001 21.0938H1.66178C1.69163 20.3466 1.83738 19.6086 2.09381 18.9062H10.2018C10.3758 18.9062 10.5427 18.8371 10.6658 18.714C10.7889 18.591 10.858 18.424 10.858 18.25C10.858 18.076 10.7889 17.909 10.6658 17.786C10.5427 17.6629 10.3758 17.5938 10.2018 17.5938H2.72491C3.21198 16.7967 3.84945 16.1021 4.60178 15.5484C4.73746 15.4438 4.82681 15.2902 4.85076 15.1205C4.8747 14.9509 4.83134 14.7786 4.72992 14.6404C4.62851 14.5023 4.4771 14.4093 4.30805 14.3814C4.13899 14.3534 3.96571 14.3927 3.82522 14.4908C2.74773 15.285 1.87149 16.3208 1.26688 17.515C0.662259 18.7093 0.346108 20.0286 0.343813 21.3672V24.375C0.343813 24.549 0.412954 24.716 0.536024 24.839C0.659095 24.9621 0.826015 25.0312 1.00006 25.0312C1.17411 25.0312 1.34103 24.9621 1.4641 24.839C1.58717 24.716 1.65631 24.549 1.65631 24.375V22.4062H11.5001C11.6741 22.4062 11.841 22.3371 11.9641 22.214C12.0872 22.091 12.1563 21.924 12.1563 21.75C12.1563 21.576 12.0872 21.409 11.9641 21.286C11.841 21.1629 11.6741 21.0938 11.5001 21.0938ZM15.0001 0.96875C14.826 0.96875 14.6591 1.03789 14.536 1.16096C14.413 1.28403 14.3438 1.45095 14.3438 1.625V3.59375H4.50006C4.32601 3.59375 4.1591 3.66289 4.03602 3.78596C3.91295 3.90903 3.84381 4.07595 3.84381 4.25C3.84381 4.42405 3.91295 4.59097 4.03602 4.71404C4.1591 4.83711 4.32601 4.90625 4.50006 4.90625H14.3438C14.3122 5.65368 14.1646 6.39166 13.9063 7.09375H5.80053C5.62648 7.09375 5.45956 7.16289 5.33649 7.28596C5.21342 7.40903 5.14428 7.57595 5.14428 7.75C5.14428 7.92405 5.21342 8.09097 5.33649 8.21404C5.45956 8.33711 5.62648 8.40625 5.80053 8.40625H13.2752C12.7881 9.20328 12.1507 9.89795 11.3983 10.4516C11.2627 10.5562 11.1733 10.7098 11.1494 10.8795C11.1254 11.0491 11.1688 11.2214 11.2702 11.3596C11.3716 11.4977 11.523 11.5907 11.6921 11.6186C11.8611 11.6466 12.0344 11.6073 12.1749 11.5092C13.2524 10.715 14.1286 9.6792 14.7332 8.48497C15.3379 7.29074 15.654 5.97137 15.6563 4.63281V1.625C15.6563 1.45095 15.5872 1.28403 15.4641 1.16096C15.341 1.03789 15.1741 0.96875 15.0001 0.96875Z" fill="#7199F2"/>
</svg>
