<svg width="24" height="23" viewBox="0 0 24 23" fill="none" xmlns="http://www.w3.org/2000/svg">
<path d="M0.0937176 11.1251C0.0951653 9.79115 0.625706 8.51228 1.56894 7.56905C2.51216 6.62582 3.79104 6.09528 5.12497 6.09383H9.48356C9.76575 6.07742 15.4007 5.70336 20.7656 1.20367C20.9888 1.01637 21.2608 0.896623 21.5496 0.858501C21.8385 0.820379 22.1322 0.865462 22.3964 0.988456C22.6605 1.11145 22.884 1.30725 23.0408 1.55286C23.1975 1.79848 23.2809 2.08371 23.2812 2.37508V19.8751C23.2832 20.1667 23.2009 20.4527 23.0444 20.6987C22.8878 20.9447 22.6636 21.1403 22.3986 21.262C22.1954 21.3564 21.9741 21.4057 21.75 21.4063C21.3894 21.4065 21.0405 21.2786 20.7656 21.0454C16.3906 17.3791 11.8439 16.4516 10.1562 16.2252V19.944C10.1563 20.1961 10.0941 20.4442 9.97527 20.6665C9.8564 20.8888 9.6845 21.0783 9.47481 21.2182L8.27169 22.0199C8.06819 22.1554 7.83521 22.2403 7.59222 22.2673C7.34923 22.2943 7.1033 22.2628 6.875 22.1753C6.6467 22.0878 6.44266 21.9469 6.27996 21.7644C6.11726 21.5819 6.00063 21.3631 5.93981 21.1263L4.61309 16.1268C3.37505 15.9985 2.22832 15.4165 1.39386 14.493C0.559399 13.5694 0.0962715 12.3697 0.0937176 11.1251ZM21.6089 20.0413C21.6407 20.0682 21.6795 20.0854 21.7207 20.091C21.762 20.0965 21.8039 20.0902 21.8417 20.0727C21.8795 20.0553 21.9115 20.0274 21.934 19.9924C21.9565 19.9574 21.9685 19.9167 21.9687 19.8751V2.37508C21.9699 2.33344 21.9585 2.2924 21.9361 2.25729C21.9137 2.22219 21.8812 2.19463 21.8429 2.1782C21.8138 2.16442 21.7822 2.15696 21.75 2.15633C21.6992 2.15649 21.6502 2.17516 21.6122 2.20883C16.7997 6.24695 11.8778 7.15149 10.1595 7.34945V14.8963C11.8745 15.0987 16.7953 16.0043 21.6089 20.0413ZM7.21075 20.807C7.21924 20.841 7.23578 20.8725 7.25898 20.8988C7.28218 20.925 7.31136 20.9454 7.34406 20.958C7.37677 20.9707 7.41203 20.9753 7.44689 20.9715C7.48174 20.9676 7.51517 20.9555 7.54434 20.936L8.74747 20.1343C8.77751 20.1143 8.80212 20.0871 8.81911 20.0552C8.83609 20.0233 8.84492 19.9878 8.84481 19.9516V16.1563H5.97919L7.21075 20.807ZM5.12497 14.8438H8.84372V7.40633H5.12497C4.13869 7.40633 3.19282 7.79812 2.49541 8.49552C1.79801 9.19293 1.40622 10.1388 1.40622 11.1251C1.40622 12.1114 1.79801 13.0572 2.49541 13.7546C3.19282 14.452 4.13869 14.8438 5.12497 14.8438Z" fill="#F27171"/>
</svg>
