<svg width="24" height="24" viewBox="0 0 24 24" fill="none" xmlns="http://www.w3.org/2000/svg">
<path d="M12 0.84375C9.79351 0.84375 7.63656 1.49805 5.80192 2.72392C3.96729 3.94978 2.53736 5.69215 1.69297 7.73069C0.848584 9.76923 0.627653 12.0124 1.05812 14.1765C1.48859 16.3406 2.55112 18.3284 4.11134 19.8887C5.67157 21.4489 7.65943 22.5114 9.82353 22.9419C11.9876 23.3724 14.2308 23.1514 16.2693 22.307C18.3079 21.4626 20.0502 20.0327 21.2761 18.1981C22.502 16.3634 23.1563 14.2065 23.1563 12C23.1528 9.04224 21.9763 6.20663 19.8848 4.11518C17.7934 2.02373 14.9578 0.847224 12 0.84375ZM20.9217 7.84375H16.5052C15.9787 5.81471 15.0186 3.92394 13.6909 2.30172C15.2526 2.57708 16.725 3.22446 17.9836 4.18911C19.2422 5.15376 20.25 6.40731 20.9217 7.84375ZM21.8438 12C21.8445 12.9633 21.7033 13.9215 21.4248 14.8438H16.7917C17.1111 12.9614 17.1111 11.0386 16.7917 9.15625H21.4248C21.7033 10.0785 21.8445 11.0367 21.8438 12ZM12 21.6064C11.3682 20.9619 10.8109 20.2483 10.3386 19.4791C9.7013 18.4424 9.20614 17.3248 8.86641 16.1562H15.1336C14.7939 17.3248 14.2987 18.4424 13.6614 19.4791C13.1892 20.2483 12.6319 20.9619 12 21.6064ZM8.54922 14.8438C8.19192 12.9648 8.19192 11.0352 8.54922 9.15625H15.4508C15.8081 11.0352 15.8081 12.9648 15.4508 14.8438H8.54922ZM2.15626 12C2.15552 11.0367 2.29667 10.0785 2.57516 9.15625H7.20829C6.88891 11.0386 6.88891 12.9614 7.20829 14.8438H2.57516C2.29667 13.9215 2.15552 12.9633 2.15626 12ZM12 2.39359C12.6319 3.03814 13.1892 3.75175 13.6614 4.52094C14.2987 5.55763 14.7939 6.67522 15.1336 7.84375H8.86641C9.20614 6.67522 9.7013 5.55763 10.3386 4.52094C10.8109 3.75175 11.3682 3.03814 12 2.39359ZM10.3091 2.30172C8.98145 3.92394 8.02132 5.81471 7.49485 7.84375H3.07829C3.75004 6.40731 4.75782 5.15376 6.01642 4.18911C7.27502 3.22446 8.7474 2.57708 10.3091 2.30172ZM3.07829 16.1562H7.49485C8.02132 18.1853 8.98145 20.0761 10.3091 21.6983C8.7474 21.4229 7.27502 20.7755 6.01642 19.8109C4.75782 18.8462 3.75004 17.5927 3.07829 16.1562ZM13.6877 21.6983C15.0165 20.0764 15.9777 18.1856 16.5052 16.1562H20.9217C20.25 17.5927 19.2422 18.8462 17.9836 19.8109C16.725 20.7755 15.2526 21.4229 13.6909 21.6983H13.6877Z" fill="#71DAF2"/>
</svg>
